<?xml version="1.0" standalone="no"?>
<!DOCTYPE svg PUBLIC "-//W3C//DTD SVG 20010904//EN"
 "http://www.w3.org/TR/2001/REC-SVG-20010904/DTD/svg10.dtd">
<svg version="1.0" xmlns="http://www.w3.org/2000/svg"
 width="300.000000pt" height="300.000000pt" viewBox="0 0 300.000000 300.000000"
 preserveAspectRatio="xMidYMid meet">
<metadata>
Created by potrace 1.14, written by Peter Selinger 2001-2017
</metadata>
<g transform="translate(0.000000,300.000000) scale(0.100000,-0.100000)"
fill="#000000" stroke="none">
<path d="M2713 1847 c-32 -17 -57 -78 -49 -121 9 -49 56 -86 108 -86 32 0 47
7 75 35 33 33 35 39 30 81 -7 62 -40 95 -98 99 -24 2 -54 -2 -66 -8z"/>
<path d="M1809 1746 c-4 -3 -5 -463 -1 -473 2 -7 16 -13 32 -13 25 0 27 3 25
35 l-3 34 38 -31 c110 -87 256 -29 276 109 6 43 -13 102 -44 136 -59 65 -175
67 -241 3 l-26 -25 0 112 0 111 -27 1 c-16 1 -29 1 -29 1z m266 -233 c55 -40
54 -136 -1 -176 -51 -38 -132 -17 -159 40 -49 103 68 202 160 136z"/>
<path d="M580 1732 c-15 -2 -65 -44 -128 -105 -57 -56 -105 -103 -106 -105 -2
-1 -3 45 -2 103 l1 105 -32 0 -33 0 0 -233 0 -232 30 0 c34 -1 32 -9 32 128 0
77 3 95 13 87 7 -6 58 -56 113 -113 94 -95 104 -102 142 -103 l41 -1 -43 45
c-24 25 -61 65 -83 88 -22 23 -56 58 -75 79 l-35 36 113 108 c114 110 120 123
52 113z"/>
<path d="M1174 1717 c-183 -88 -180 -357 4 -439 58 -26 140 -25 197 2 63 30
73 46 48 72 l-21 20 -30 -22 c-45 -34 -119 -38 -176 -11 -82 40 -117 162 -72
250 42 81 145 110 233 66 45 -23 49 -24 65 -7 21 20 15 31 -34 60 -23 14 -59
25 -100 28 -53 4 -71 1 -114 -19z"/>
<path d="M723 1580 c-101 -45 -135 -169 -69 -255 63 -82 185 -89 256 -13 l20
22 0 -32 c0 -18 3 -32 8 -33 4 0 17 -2 30 -5 25 -4 24 -13 24 156 0 183 2 172
-29 168 -24 -2 -29 -8 -31 -37 -3 -33 -4 -33 -18 -12 -36 51 -126 70 -191 41z
m125 -62 c82 -64 43 -198 -57 -198 -91 0 -139 89 -91 167 29 48 106 64 148 31z"/>
<path d="M1450 1574 c0 -7 25 -69 55 -139 30 -71 55 -134 55 -141 0 -8 -16
-46 -35 -85 -19 -40 -35 -74 -35 -76 0 -1 15 -3 34 -3 31 0 35 4 54 48 20 46
43 96 130 284 52 111 54 123 22 122 -14 -1 -28 -2 -31 -3 -3 0 -25 -48 -49
-106 -24 -58 -46 -105 -49 -105 -3 0 -25 49 -49 109 -42 104 -45 109 -73 107
-16 0 -29 -6 -29 -12z"/>
<path d="M2310 1571 c-75 -40 -107 -134 -72 -213 39 -88 147 -127 232 -83 38
20 47 40 26 60 -14 14 -18 14 -40 0 -32 -21 -97 -21 -129 0 -25 16 -44 51 -34
62 3 2 59 5 124 6 l118 2 -2 42 c-4 113 -122 178 -223 124z m126 -52 c23 -12
48 -56 36 -62 -18 -9 -182 -6 -182 4 0 23 23 51 53 64 33 14 59 12 93 -6z"/>
<path d="M2589 1583 c-1 -4 -2 -77 -3 -160 -1 -158 1 -165 40 -159 17 3 19 13
20 97 0 52 4 104 8 117 9 26 58 54 89 50 18 -2 23 3 25 30 3 31 2 32 -32 32
-22 0 -45 -9 -64 -25 -29 -24 -29 -24 -28 -3 1 16 -6 22 -26 25 -16 2 -29 0
-29 -4z"/>
</g>
</svg>
